{"extensionsUsed" : ["KHR_materials_specular", "KHR_materials_ior"], "accessors" : [{"bufferView" : 0, "byteOffset" : 0, "componentType" : 5123, "count" : 36, "type" : "SCALAR", "max" : [35], "min" : [0]}, {"bufferView" : 1, "byteOffset" : 0, "componentType" : 5126, "count" : 36, "type" : "VEC3", "max" : [32, 30, 32.400001525878906], "min" : [-32, -34, 31.200000762939453], "name" : "POSITION"}, {"bufferView" : 1, "byteOffset" : 12, "componentType" : 5126, "count" : 36, "type" : "VEC3", "max" : [1.0000044107437134, 1.0000044107437134, 1.0000044107437134], "min" : [-1.0000044107437134, -1.0000044107437134, -1.0000044107437134], "name" : "NORMAL"}, {"bufferView" : 1, "byteOffset" : 24, "componentType" : 5126, "count" : 36, "type" : "VEC2", "max" : [8.25, 13], "min" : [0.25, 5], "name" : "TEXCOORD_0"}, {"bufferView" : 0, "byteOffset" : 72, "componentType" : 5123, "count" : 22032, "type" : "SCALAR", "max" : [22031], "min" : [0]}, {"bufferView" : 2, "byteOffset" : 0, "componentType" : 5126, "count" : 22032, "type" : "VEC3", "max" : [28, 26, 31.200000762939453], "min" : [-28, -30, -31.200000762939453], "name" : "POSITION"}, {"bufferView" : 2, "byteOffset" : 12, "componentType" : 5126, "count" : 22032, "type" : "VEC3", "max" : [1.0000044107437134, 1.0000044107437134, 1.0000044107437134], "min" : [-1.0000044107437134, -1.0000044107437134, -1.0000044107437134], "name" : "NORMAL"}, {"bufferView" : 2, "byteOffset" : 24, "componentType" : 5126, "count" : 22032, "type" : "VEC2", "max" : [14.5, 11.25], "min" : [0, 1], "name" : "TEXCOORD_0"}, {"bufferView" : 0, "byteOffset" : 44136, "componentType" : 5123, "count" : 3420, "type" : "SCALAR", "max" : [3419], "min" : [0]}, {"bufferView" : 3, "byteOffset" : 0, "componentType" : 5126, "count" : 3420, "type" : "VEC3", "max" : [29, 27, 28.799999237060547], "min" : [-29, -31, -2.3999900817871094], "name" : "POSITION"}, {"bufferView" : 3, "byteOffset" : 12, "componentType" : 5126, "count" : 3420, "type" : "VEC3", "max" : [1.0000044107437134, 1.0000044107437134, 1.0000044107437134], "min" : [-1.0000044107437134, -1.0000044107437134, -1.0000044107437134], "name" : "NORMAL"}, {"bufferView" : 3, "byteOffset" : 24, "componentType" : 5126, "count" : 3420, "type" : "VEC2", "max" : [8.75, 9.350000381469727], "min" : [0, 1], "name" : "TEXCOORD_0"}, {"bufferView" : 0, "byteOffset" : 50976, "componentType" : 5123, "count" : 144, "type" : "SCALAR", "max" : [143], "min" : [0]}, {"bufferView" : 4, "byteOffset" : 0, "componentType" : 5126, "count" : 144, "type" : "VEC3", "max" : [14, 34, 32.400001525878906], "min" : [8, 24, 27.600000381469727], "name" : "POSITION"}, {"bufferView" : 4, "byteOffset" : 12, "componentType" : 5126, "count" : 144, "type" : "VEC3", "max" : [1.0000044107437134, 1.0000044107437134, 1.0000044107437134], "min" : [-1.0000044107437134, -1.0000044107437134, -1.0000044107437134], "name" : "NORMAL"}, {"bufferView" : 4, "byteOffset" : 24, "componentType" : 5126, "count" : 144, "type" : "VEC2", "max" : [6.75, 9.25], "min" : [0.25, 4.75], "name" : "TEXCOORD_0"}, {"bufferView" : 0, "byteOffset" : 51264, "componentType" : 5123, "count" : 144, "type" : "SCALAR", "max" : [143], "min" : [0]}, {"bufferView" : 5, "byteOffset" : 0, "componentType" : 5126, "count" : 144, "type" : "VEC3", "max" : [12, 25, 14.399999618530273], "min" : [-12, -29, -7.1999897956848145], "name" : "POSITION"}, {"bufferView" : 5, "byteOffset" : 12, "componentType" : 5126, "count" : 144, "type" : "VEC3", "max" : [1.0000044107437134, 1.0000044107437134, 1.0000044107437134], "min" : [-1.0000044107437134, -1.0000044107437134, -1.0000044107437134], "name" : "NORMAL"}, {"bufferView" : 5, "byteOffset" : 24, "componentType" : 5126, "count" : 144, "type" : "VEC2", "max" : [11.5, 12.25], "min" : [1.75, 3.5], "name" : "TEXCOORD_0"}, {"bufferView" : 0, "byteOffset" : 51552, "componentType" : 5123, "count" : 72, "type" : "SCALAR", "max" : [71], "min" : [0]}, {"bufferView" : 6, "byteOffset" : 0, "componentType" : 5126, "count" : 72, "type" : "VEC3", "max" : [26, 24, 28.799999237060547], "min" : [-26, -28, 8.400010108947754], "name" : "POSITION"}, {"bufferView" : 6, "byteOffset" : 12, "componentType" : 5126, "count" : 72, "type" : "VEC3", "max" : [1.0000044107437134, 1.0000044107437134, 1.0000044107437134], "min" : [-1.0000044107437134, -1.0000044107437134, -1.0000044107437134], "name" : "NORMAL"}, {"bufferView" : 6, "byteOffset" : 24, "componentType" : 5126, "count" : 72, "type" : "VEC2", "max" : [10, 13.25], "min" : [1.5, 6.5], "name" : "TEXCOORD_0"}, {"bufferView" : 0, "byteOffset" : 51696, "componentType" : 5123, "count" : 144, "type" : "SCALAR", "max" : [143], "min" : [0]}, {"bufferView" : 7, "byteOffset" : 0, "componentType" : 5126, "count" : 144, "type" : "VEC3", "max" : [-12, 20, -31.200000762939453], "min" : [-20, 12, -32.400001525878906], "name" : "POSITION"}, {"bufferView" : 7, "byteOffset" : 12, "componentType" : 5126, "count" : 144, "type" : "VEC3", "max" : [1.0000044107437134, 1.0000044107437134, 1.0000044107437134], "min" : [-1.0000044107437134, -1.0000044107437134, -1.0000044107437134], "name" : "NORMAL"}, {"bufferView" : 7, "byteOffset" : 24, "componentType" : 5126, "count" : 144, "type" : "VEC2", "max" : [5.75, 8], "min" : [0.25, 5.5], "name" : "TEXCOORD_0"}, {"bufferView" : 0, "byteOffset" : 51984, "componentType" : 5123, "count" : 5508, "type" : "SCALAR", "max" : [5507], "min" : [0]}, {"bufferView" : 8, "byteOffset" : 0, "componentType" : 5126, "count" : 5508, "type" : "VEC3", "max" : [30, 28, -7.199979782104492], "min" : [-30, -32, -25.200000762939453], "name" : "POSITION"}, {"bufferView" : 8, "byteOffset" : 12, "componentType" : 5126, "count" : 5508, "type" : "VEC3", "max" : [1.0000044107437134, 1.0000044107437134, 1.0000044107437134], "min" : [-1.0000044107437134, -1.0000044107437134, -1.0000044107437134], "name" : "NORMAL"}, {"bufferView" : 8, "byteOffset" : 24, "componentType" : 5126, "count" : 5508, "type" : "VEC2", "max" : [9.25, 9.75], "min" : [0, 1], "name" : "TEXCOORD_0"}], "asset" : {"generator" : "Aspose.3D 24.1.0", "version" : "2.0"}, "buffers" : [{"uri" : "data:application/octet-stream;base64,", "byteLength" : 1071036}], "bufferViews" : [{"buffer" : 0, "byteOffset" : 0, "byteLength" : 63000, "target" : 34963}, {"buffer" : 0, "byteOffset" : 63004, "byteLength" : 1152, "byteStride" : 32, "target" : 34962}, {"buffer" : 0, "byteOffset" : 64160, "byteLength" : 705024, "byteStride" : 32, "target" : 34962}, {"buffer" : 0, "byteOffset" : 769188, "byteLength" : 109440, "byteStride" : 32, "target" : 34962}, {"buffer" : 0, "byteOffset" : 878632, "byteLength" : 4608, "byteStride" : 32, "target" : 34962}, {"buffer" : 0, "byteOffset" : 883244, "byteLength" : 4608, "byteStride" : 32, "target" : 34962}, {"buffer" : 0, "byteOffset" : 887856, "byteLength" : 2304, "byteStride" : 32, "target" : 34962}, {"buffer" : 0, "byteOffset" : 890164, "byteLength" : 4608, "byteStride" : 32, "target" : 34962}, {"buffer" : 0, "byteOffset" : 894776, "byteLength" : 176256, "byteStride" : 32, "target" : 34962}], "materials" : [{"name" : "SmoothBlockModel1Mtl", "extensions" : {"KHR_materials_specular" : {"specularFactor" : 0.012247207574546337}, "KHR_materials_ior" : {"ior" : 1.4500000476837158}}, "pbrMetallicRoughness" : {"baseColorFactor" : [0.016988100484013557, 0.21576400101184845, 0.060031600296497345, 1], "metallicFactor" : 0, "roughnessFactor" : 1}, "emissiveFactor" : [0, 0, 0], "alphaMode" : "OPAQUE", "doubleSided" : true}, {"name" : "SmoothBlockModel2Mtl", "extensions" : {"KHR_materials_specular" : {"specularFactor" : 0.06624080240726471}, "KHR_materials_ior" : {"ior" : 1.4500000476837158}}, "pbrMetallicRoughness" : {"baseColorFactor" : [0.6870309710502625, 0.5668100118637085, 0.32972899079322815, 1], "metallicFactor" : 0, "roughnessFactor" : 1}, "emissiveFactor" : [0, 0, 0], "alphaMode" : "OPAQUE", "doubleSided" : true}, {"name" : "SmoothBlockModel41Mtl", "extensions" : {"KHR_materials_specular" : {"specularFactor" : 0.021087653934955597}, "KHR_materials_ior" : {"ior" : 1.4500000476837158}}, "pbrMetallicRoughness" : {"baseColorFactor" : [0.3586539924144745, 0.11392100155353546, 0.03155139833688736, 1], "metallicFactor" : 0, "roughnessFactor" : 1}, "emissiveFactor" : [0, 0, 0], "alphaMode" : "OPAQUE", "doubleSided" : true}, {"name" : "SmoothBlockModel133Mtl", "extensions" : {"KHR_materials_specular" : {"specularFactor" : 0.015085913240909576}, "KHR_materials_ior" : {"ior" : 1.4500000476837158}}, "pbrMetallicRoughness" : {"baseColorFactor" : [0.12474100291728973, 0.11392100155353546, 0.12198600172996521, 1], "metallicFactor" : 0, "roughnessFactor" : 1}, "emissiveFactor" : [0, 0, 0], "alphaMode" : "OPAQUE", "doubleSided" : true}, {"name" : "SmoothBlockModel204Mtl", "extensions" : {"KHR_materials_specular" : {"specularFactor" : 0.008648119866847992}, "KHR_materials_ior" : {"ior" : 1.4500000476837158}}, "pbrMetallicRoughness" : {"baseColorFactor" : [0.14198000729084015, 0.04777580127120018, 0.016988100484013557, 1], "metallicFactor" : 0, "roughnessFactor" : 1}, "emissiveFactor" : [0, 0, 0], "alphaMode" : "OPAQUE", "doubleSided" : true}, {"name" : "SmoothBlockModel207Mtl", "extensions" : {"KHR_materials_specular" : {"specularFactor" : 0.045229196548461914}, "KHR_materials_ior" : {"ior" : 1.4500000476837158}}, "pbrMetallicRoughness" : {"baseColorFactor" : [0.15728099644184113, 0.32503700256347656, 0.59894198179245, 1], "metallicFactor" : 0, "roughnessFactor" : 1}, "emissiveFactor" : [0, 0, 0], "alphaMode" : "OPAQUE", "doubleSided" : true}, {"name" : "SmoothBlockModel624Mtl", "extensions" : {"KHR_materials_specular" : {"specularFactor" : 0.028762133792042732}, "KHR_materials_ior" : {"ior" : 1.4500000476837158}}, "pbrMetallicRoughness" : {"baseColorFactor" : [0.3066349923610687, 0.19397200644016266, 0.18698899447917938, 1], "metallicFactor" : 0, "roughnessFactor" : 1}, "emissiveFactor" : [0, 0, 0], "alphaMode" : "OPAQUE", "doubleSided" : true}, {"name" : "SmoothBlockModel651Mtl", "extensions" : {"KHR_materials_specular" : {"specularFactor" : 0.02448057383298874}, "KHR_materials_ior" : {"ior" : 1.4500000476837158}}, "pbrMetallicRoughness" : {"baseColorFactor" : [0.5604990124702454, 0.016988100484013557, 0.007751029916107655, 1], "metallicFactor" : 0, "roughnessFactor" : 1}, "emissiveFactor" : [0, 0, 0], "alphaMode" : "OPAQUE", "doubleSided" : true}], "meshes" : [{"primitives" : [{"attributes" : {"POSITION" : 1, "NORMAL" : 2, "TEXCOORD_0" : 3}, "indices" : 0, "material" : 0, "mode" : 4}, {"attributes" : {"POSITION" : 5, "NORMAL" : 6, "TEXCOORD_0" : 7}, "indices" : 4, "material" : 1, "mode" : 4}, {"attributes" : {"POSITION" : 9, "NORMAL" : 10, "TEXCOORD_0" : 11}, "indices" : 8, "material" : 2, "mode" : 4}, {"attributes" : {"POSITION" : 13, "NORMAL" : 14, "TEXCOORD_0" : 15}, "indices" : 12, "material" : 3, "mode" : 4}, {"attributes" : {"POSITION" : 17, "NORMAL" : 18, "TEXCOORD_0" : 19}, "indices" : 16, "material" : 4, "mode" : 4}, {"attributes" : {"POSITION" : 21, "NORMAL" : 22, "TEXCOORD_0" : 23}, "indices" : 20, "material" : 5, "mode" : 4}, {"attributes" : {"POSITION" : 25, "NORMAL" : 26, "TEXCOORD_0" : 27}, "indices" : 24, "material" : 6, "mode" : 4}, {"attributes" : {"POSITION" : 29, "NORMAL" : 30, "TEXCOORD_0" : 31}, "indices" : 28, "material" : 7, "mode" : 4}]}], "nodes" : [{"matrix" : [0.2025054693222046, 0, 0, 0, 0, 6.931466917110836E-09, 0.20250547946067204, 0, 0, -0.20250547946067204, 6.931466917110836E-09, 0, 0, 0, 0, 1], "mesh" : 0, "name" : "House"}], "scene" : 0, "scenes" : [{"nodes" : [0]}]}